<mxfile host="app.diagrams.net" modified="2022-07-20T14:23:21.654Z" agent="5.0 (Windows NT 10.0; Win64; x64) AppleWebKit/537.36 (KHTML, like Gecko) Chrome/103.0.0.0 Safari/537.36" etag="AeXuOI8g4QA57iixCuSw" version="20.1.3" type="github">
  <diagram id="yHg9e6FnaKHltq3A6-f5" name="第 1 页">
    <mxGraphModel dx="1305" dy="781" grid="1" gridSize="10" guides="1" tooltips="1" connect="1" arrows="1" fold="1" page="1" pageScale="1" pageWidth="827" pageHeight="1169" math="0" shadow="0">
      <root>
        <mxCell id="0" />
        <mxCell id="1" parent="0" />
        <mxCell id="qmxdAk4o4CNsmubfr80v-1" value="" style="rounded=1;whiteSpace=wrap;html=1;dashed=1;arcSize=6;" vertex="1" parent="1">
          <mxGeometry x="174" y="90" width="480" height="160" as="geometry" />
        </mxCell>
      </root>
    </mxGraphModel>
  </diagram>
</mxfile>
